<?xml version="1.0" encoding="UTF-8"?>
<svg width="38px" height="38px" viewBox="0 0 38 38" version="1.1" xmlns="http://www.w3.org/2000/svg" xmlns:xlink="http://www.w3.org/1999/xlink">
    <!-- Generator: Sketch 53.2 (72643) - https://sketchapp.com -->
    <title>pause</title>
    <desc>Created with Sketch.</desc>
    <g id="pause" stroke="none" stroke-width="1" fill="none" fill-rule="evenodd">
        <path d="M19,38 C8.50658975,38 0,29.4934102 0,19 C0,8.50658975 8.50658975,0 19,0 C29.4934102,0 38,8.50658975 38,19 C38,29.4934102 29.4934102,38 19,38 Z M21,14 L21,23 C21,24.3807119 22.1192881,25.5 23.5,25.5 C24.8807119,25.5 26,24.3807119 26,23 L26,14 C26,12.6192881 24.8807119,11.5 23.5,11.5 C22.1192881,11.5 21,12.6192881 21,14 Z M12,14 L12,23 C12,24.3807119 13.1192881,25.5 14.5,25.5 C15.8807119,25.5 17,24.3807119 17,23 L17,14 C17,12.6192881 15.8807119,11.5 14.5,11.5 C13.1192881,11.5 12,12.6192881 12,14 Z" id="Combined-Shape" fill="#000000"></path>
    </g>
</svg>