<?xml version="1.0" encoding="UTF-8"?>
<svg width="27px" height="27px" viewBox="0 0 27 27" version="1.1" xmlns="http://www.w3.org/2000/svg" xmlns:xlink="http://www.w3.org/1999/xlink">
    <!-- Generator: Sketch 53.2 (72643) - https://sketchapp.com -->
    <title>sun</title>
    <desc>Created with Sketch.</desc>
    <g id="sun" stroke="none" stroke-width="1" fill="none" fill-rule="evenodd">
        <g id="icon_sun" transform="translate(2.000000, 2.000000)" stroke="#F68B8B">
            <circle id="Oval" stroke-width="3" cx="11.5" cy="11.5" r="5"></circle>
            <path d="M11.5,0.289672852 L11.5,0.710327148" id="Line" stroke-width="4" stroke-linecap="round"></path>
            <path d="M11.5,22.2896729 L11.5,22.7103271" id="Line" stroke-width="4" stroke-linecap="round"></path>
            <path d="M22.5,11.3208324 L22.5,11.6791676" id="Line" stroke-width="4" stroke-linecap="round" transform="translate(22.500000, 11.500000) rotate(-270.000000) translate(-22.500000, -11.500000) "></path>
            <path d="M0.5,11.3208324 L0.5,11.6791676" id="Line" stroke-width="4" stroke-linecap="round" transform="translate(0.500000, 11.500000) rotate(-270.000000) translate(-0.500000, -11.500000) "></path>
            <path d="M19.3344478,3.83463332 L19.3266579,4.18517857" id="Line" stroke-width="4" stroke-linecap="round" transform="translate(19.330553, 4.009906) rotate(-315.000000) translate(-19.330553, -4.009906) "></path>
            <path d="M3.67334207,18.8148214 L3.66555218,19.1653667" id="Line" stroke-width="4" stroke-linecap="round" transform="translate(3.669447, 18.990094) rotate(-315.000000) translate(-3.669447, -18.990094) "></path>
            <path d="M19.3266579,18.8148214 L19.3344478,19.1653667" id="Line" stroke-width="4" stroke-linecap="round" transform="translate(19.330553, 18.990094) rotate(-225.000000) translate(-19.330553, -18.990094) "></path>
            <path d="M3.66555218,3.83463332 L3.67334207,4.18517857" id="Line" stroke-width="4" stroke-linecap="round" transform="translate(3.669447, 4.009906) rotate(-225.000000) translate(-3.669447, -4.009906) "></path>
        </g>
    </g>
</svg>