<?xml version="1.0" encoding="UTF-8"?>
<svg width="38px" height="38px" viewBox="0 0 38 38" version="1.1" xmlns="http://www.w3.org/2000/svg" xmlns:xlink="http://www.w3.org/1999/xlink">
    <!-- Generator: Sketch 53.2 (72643) - https://sketchapp.com -->
    <title>play</title>
    <desc>Created with Sketch.</desc>
    <g id="play" stroke="none" stroke-width="1" fill="none" fill-rule="evenodd">
        <path d="M19,38 C8.50658975,38 0,29.4934102 0,19 C0,8.50658975 8.50658975,0 19,0 C29.4934102,0 38,8.50658975 38,19 C38,29.4934102 29.4934102,38 19,38 Z M14.5,24.5141246 C14.5,24.899954 14.6116013,25.2775476 14.8213496,25.6013839 C15.4218263,26.5284769 16.6601663,26.7932517 17.5872593,26.192775 L26.1006723,20.6786504 C26.337278,20.5254013 26.5388143,20.323865 26.6920634,20.0872593 C27.2925401,19.1601663 27.0277653,17.9218263 26.1006723,17.3213496 L17.5872593,11.807225 C17.263423,11.5974767 16.8858294,11.4858754 16.5,11.4858754 C15.3954305,11.4858754 14.5,12.3813059 14.5,13.4858754 L14.5,24.5141246 Z" id="Combined-Shape" fill="#000000"></path>
    </g>
</svg>